<svg xmlns="http://www.w3.org/2000/svg" xmlns:xlink="http://www.w3.org/1999/xlink" viewBox="0 0 2559.68 154.98"><defs><style>.cls-1{fill:none;clip-rule:evenodd;}.cls-2{fill:#e0b875;}.cls-3{fill:#bf181a;}.cls-4{fill:#479b41;}.cls-19,.cls-5{fill:#fff;}.cls-30,.cls-31,.cls-32,.cls-5{fill-rule:evenodd;}.cls-6{clip-path:url(#clip-path);}.cls-7{fill:#ececec;}.cls-8{fill:#eeefef;}.cls-9{fill:#f0f0f1;}.cls-10{fill:#f0f2f2;}.cls-11{fill:#f2f3f4;}.cls-12{fill:#f5f4f4;}.cls-13{fill:#f7f6f7;}.cls-14{fill:#f7f8fa;}.cls-15{fill:#f9f9fa;}.cls-16{fill:#fbfcfc;}.cls-17{fill:#fdfdfe;}.cls-18{fill:#fdfeff;}.cls-20{fill:#ecebec;}.cls-21{fill:#eaeaeb;}.cls-22{fill:#eaeaea;}.cls-23{fill:#e8e9e9;}.cls-24{fill:#e8e7e7;}.cls-25{fill:#e7e5e6;}.cls-26{fill:#e5e4e6;}.cls-27{fill:#e3e3e4;}.cls-28{fill:#e3e2e1;}.cls-29{fill:#e1dfe0;}.cls-30{fill:#e30517;}.cls-31{fill:#009e3e;}</style><clipPath id="clip-path"><polygon class="cls-1" points="1486.1 150 984.29 150 1073.58 4.98 1575.38 4.98 1486.1 150"/></clipPath></defs><title>logo svg</title><g id="Capa_2" data-name="Capa 2"><rect class="cls-2" y="62.93" width="2559.68" height="29.11"/><rect class="cls-3" x="1279.84" y="66.99" width="1279.84" height="20.99"/><rect class="cls-4" y="66.99" width="1279.84" height="20.99"/></g><g id="Capa_4" data-name="Capa 4"><polygon class="cls-5" points="1488.75 154.73 975.82 154.73 1070.93 0.25 1583.86 0.25 1488.75 154.73"/><g class="cls-6"><rect class="cls-7" x="1167.59" y="213.04" width="512.22" height="2.17" transform="translate(288.02 1099) rotate(-46.48)"/><rect class="cls-7" x="1166.49" y="211.79" width="512.22" height="2.59" transform="translate(288.3 1097.71) rotate(-46.47)"/><rect class="cls-7" x="1165.24" y="210.6" width="512.22" height="2.59" transform="translate(288.72 1096.36) rotate(-46.47)"/><rect class="cls-7" x="1163.98" y="209.41" width="512.22" height="2.59" transform="translate(289.39 1095.34) rotate(-46.48)"/><rect class="cls-8" x="1162.73" y="208.22" width="512.22" height="2.59" transform="translate(289.86 1094.06) rotate(-46.48)"/><rect class="cls-8" x="1161.48" y="207.03" width="512.22" height="2.59" transform="translate(290.29 1092.72) rotate(-46.48)"/><rect class="cls-8" x="1160.23" y="205.84" width="512.22" height="2.59" transform="translate(290.66 1091.32) rotate(-46.47)"/><rect class="cls-8" x="1158.97" y="204.65" width="512.22" height="2.59" transform="translate(291.23 1090.16) rotate(-46.48)"/><rect class="cls-8" x="1157.72" y="203.46" width="512.22" height="2.59" transform="translate(291.66 1088.82) rotate(-46.47)"/><rect class="cls-8" x="1156.47" y="202.27" width="512.22" height="2.59" transform="translate(292.23 1087.66) rotate(-46.48)"/><rect class="cls-8" x="1155.22" y="201.08" width="512.22" height="2.59" transform="translate(292.46 1086.08) rotate(-46.46)"/><rect class="cls-8" x="1153.96" y="199.89" width="512.22" height="2.59" transform="translate(293.17 1085.11) rotate(-46.48)"/><rect class="cls-8" x="1152.71" y="198.7" width="512.22" height="2.59" transform="translate(293.7 1083.9) rotate(-46.48)"/><rect class="cls-8" x="1151.46" y="197.51" width="512.22" height="2.59" transform="translate(294.22 1082.68) rotate(-46.48)"/><rect class="cls-8" x="1150.21" y="196.32" width="512.22" height="2.59" transform="translate(294.45 1081.09) rotate(-46.47)"/><rect class="cls-8" x="1148.95" y="195.13" width="512.22" height="2.59" transform="translate(295.01 1079.93) rotate(-46.48)"/><rect class="cls-8" x="1147.7" y="193.94" width="512.22" height="2.59" transform="translate(295.49 1078.65) rotate(-46.48)"/><rect class="cls-8" x="1146.45" y="192.75" width="512.22" height="2.59" transform="translate(296.01 1077.44) rotate(-46.48)"/><rect class="cls-8" x="1145.2" y="191.56" width="512.22" height="2.59" transform="translate(296.29 1075.91) rotate(-46.47)"/><rect class="cls-9" x="1143.94" y="190.37" width="512.22" height="2.59" transform="translate(297.06 1075.01) rotate(-46.48)"/><rect class="cls-9" x="1142.69" y="189.18" width="512.22" height="2.59" transform="translate(297.58 1073.79) rotate(-46.49)"/><rect class="cls-9" x="1141.44" y="187.99" width="512.22" height="2.59" transform="translate(297.85 1072.26) rotate(-46.48)"/><rect class="cls-9" x="1140.19" y="186.8" width="512.22" height="2.59" transform="matrix(0.69, -0.73, 0.73, 0.69, 298.23, 1070.86)"/><rect class="cls-9" x="1138.93" y="185.61" width="512.22" height="2.59" transform="translate(298.65 1069.52) rotate(-46.47)"/><rect class="cls-9" x="1137.68" y="184.43" width="512.22" height="2.59" transform="translate(299.27 1068.42) rotate(-46.48)"/><rect class="cls-9" x="1136.43" y="183.24" width="512.22" height="2.59" transform="translate(299.74 1067.15) rotate(-46.48)"/><rect class="cls-9" x="1135.18" y="182.05" width="512.22" height="2.59" transform="translate(300.22 1065.87) rotate(-46.48)"/><rect class="cls-9" x="1133.92" y="180.86" width="512.22" height="2.59" transform="translate(300.64 1064.54) rotate(-46.47)"/><rect class="cls-9" x="1132.67" y="179.67" width="512.22" height="2.59" transform="translate(301.21 1063.37) rotate(-46.48)"/><rect class="cls-9" x="1131.42" y="178.48" width="512.22" height="2.59" transform="translate(301.58 1061.97) rotate(-46.47)"/><rect class="cls-10" x="1130.17" y="177.29" width="512.22" height="2.59" transform="translate(302.01 1060.64) rotate(-46.47)"/><rect class="cls-11" x="1128.91" y="176.1" width="512.22" height="2.59" transform="translate(302.48 1059.36) rotate(-46.47)"/><rect class="cls-11" x="1127.66" y="174.91" width="512.22" height="2.59" transform="translate(303.05 1058.19) rotate(-46.48)"/><rect class="cls-12" x="1126.41" y="173.72" width="512.22" height="2.59" transform="translate(303.68 1057.1) rotate(-46.49)"/><rect class="cls-12" x="1125.16" y="172.53" width="512.22" height="2.59" transform="translate(304 1055.65) rotate(-46.48)"/><rect class="cls-12" x="1123.9" y="171.34" width="512.22" height="2.59" transform="translate(304.32 1054.18) rotate(-46.47)"/><rect class="cls-13" x="1122.65" y="170.15" width="512.22" height="2.59" transform="translate(304.99 1053.14) rotate(-46.48)"/><rect class="cls-13" x="1121.4" y="168.96" width="512.22" height="2.59" transform="translate(305.41 1051.8) rotate(-46.48)"/><rect class="cls-13" x="1120.14" y="167.77" width="512.22" height="2.59" transform="translate(305.93 1050.58) rotate(-46.48)"/><rect class="cls-14" x="1118.89" y="166.58" width="512.22" height="2.59" transform="translate(306.26 1049.13) rotate(-46.47)"/><rect class="cls-14" x="1117.64" y="165.39" width="512.22" height="2.59" transform="translate(306.78 1047.91) rotate(-46.47)"/><rect class="cls-15" x="1116.39" y="164.2" width="512.22" height="2.59" transform="translate(307.5 1046.93) rotate(-46.49)"/><rect class="cls-15" x="1115.13" y="163.01" width="512.22" height="2.59" transform="translate(307.77 1045.41) rotate(-46.48)"/><rect class="cls-16" x="1113.88" y="161.82" width="512.22" height="2.59" transform="translate(308.1 1043.96) rotate(-46.47)"/><rect class="cls-16" x="1112.63" y="160.63" width="512.22" height="2.59" transform="translate(308.72 1042.85) rotate(-46.48)"/><rect class="cls-16" x="1111.38" y="159.44" width="512.22" height="2.59" transform="translate(309.19 1041.57) rotate(-46.48)"/><rect class="cls-16" x="1110.12" y="158.25" width="512.22" height="2.59" transform="translate(309.62 1040.24) rotate(-46.47)"/><rect class="cls-17" x="1108.87" y="157.06" width="512.22" height="2.59" transform="matrix(0.69, -0.73, 0.73, 0.69, 310.04, 1038.9)"/><rect class="cls-18" x="1107.62" y="155.87" width="512.22" height="2.59" transform="translate(310.71 1037.86) rotate(-46.48)"/><rect class="cls-19" x="1106.37" y="154.68" width="512.22" height="2.59" transform="translate(311.13 1036.52) rotate(-46.48)"/><rect class="cls-19" x="1105.11" y="153.49" width="512.22" height="2.59" transform="translate(311.51 1035.12) rotate(-46.47)"/><rect class="cls-19" x="1103.86" y="152.3" width="512.22" height="2.59" transform="translate(311.88 1033.73) rotate(-46.47)"/><rect class="cls-18" x="1102.61" y="151.11" width="512.22" height="2.59" transform="translate(312.55 1032.68) rotate(-46.48)"/><rect class="cls-18" x="1101.36" y="149.92" width="512.22" height="2.59" transform="translate(312.97 1031.34) rotate(-46.48)"/><rect class="cls-18" x="1100.1" y="148.73" width="512.22" height="2.59" transform="translate(313.45 1030.06) rotate(-46.48)"/><rect class="cls-18" x="1098.85" y="147.55" width="512.22" height="2.59" transform="translate(313.98 1028.86) rotate(-46.48)"/><rect class="cls-17" x="1097.6" y="146.36" width="512.22" height="2.59" transform="translate(314.25 1027.34) rotate(-46.47)"/><rect class="cls-17" x="1096.35" y="145.17" width="512.22" height="2.59" transform="translate(314.91 1026.29) rotate(-46.48)"/><rect class="cls-17" x="1095.09" y="143.98" width="512.22" height="2.59" transform="translate(315.39 1025.01) rotate(-46.48)"/><rect class="cls-16" x="1093.84" y="142.79" width="512.22" height="2.59" transform="translate(315.67 1023.5) rotate(-46.47)"/><rect class="cls-16" x="1092.59" y="141.6" width="512.22" height="2.59" transform="matrix(0.69, -0.73, 0.73, 0.69, 316.19, 1022.28)"/><rect class="cls-16" x="1091.34" y="140.41" width="512.22" height="2.59" transform="translate(316.71 1021.06) rotate(-46.47)"/><rect class="cls-16" x="1090.08" y="139.22" width="512.22" height="2.59" transform="translate(317.38 1020.01) rotate(-46.48)"/><rect class="cls-16" x="1088.83" y="138.03" width="512.22" height="2.59" transform="translate(317.56 1018.39) rotate(-46.47)"/><rect class="cls-16" x="1087.58" y="136.84" width="512.22" height="2.59" transform="translate(318.03 1017.11) rotate(-46.47)"/><rect class="cls-16" x="1086.33" y="135.65" width="512.22" height="2.59" transform="translate(318.65 1016) rotate(-46.48)"/><rect class="cls-16" x="1085.07" y="134.46" width="512.22" height="2.59" transform="translate(319.17 1014.78) rotate(-46.48)"/><rect class="cls-16" x="1083.82" y="133.27" width="512.22" height="2.59" transform="translate(319.54 1013.39) rotate(-46.47)"/><rect class="cls-16" x="1082.57" y="132.08" width="512.22" height="2.59" transform="translate(319.97 1012.06) rotate(-46.47)"/><rect class="cls-16" x="1081.32" y="130.89" width="512.22" height="2.59" transform="translate(320.69 1011.06) rotate(-46.48)"/><rect class="cls-16" x="1080.06" y="129.7" width="512.22" height="2.59" transform="translate(321.16 1009.78) rotate(-46.48)"/><rect class="cls-15" x="1078.81" y="128.51" width="512.22" height="2.59" transform="translate(321.53 1008.39) rotate(-46.48)"/><rect class="cls-15" x="1077.56" y="127.32" width="512.22" height="2.59" transform="translate(321.81 1006.89) rotate(-46.47)"/><rect class="cls-15" x="1076.31" y="126.13" width="512.22" height="2.59" transform="translate(322.43 1005.77) rotate(-46.48)"/><rect class="cls-15" x="1075.05" y="124.94" width="512.22" height="2.59" transform="translate(322.95 1004.55) rotate(-46.48)"/><rect class="cls-15" x="1073.8" y="123.75" width="512.22" height="2.59" transform="translate(323.37 1003.22) rotate(-46.48)"/><rect class="cls-15" x="1072.55" y="122.56" width="512.22" height="2.59" transform="translate(323.9 1002) rotate(-46.48)"/><rect class="cls-15" x="1071.3" y="121.37" width="512.22" height="2.59" transform="translate(324.47 1000.83) rotate(-46.48)"/><rect class="cls-14" x="1070.04" y="120.18" width="512.22" height="2.59" transform="translate(324.74 999.32) rotate(-46.47)"/><rect class="cls-14" x="1068.79" y="118.99" width="512.22" height="2.59" transform="translate(325.31 998.16) rotate(-46.48)"/><rect class="cls-14" x="1067.54" y="117.8" width="512.22" height="2.59" transform="translate(325.54 996.6) rotate(-46.46)"/><rect class="cls-14" x="1066.29" y="116.61" width="512.22" height="2.59" transform="translate(326.21 995.54) rotate(-46.48)"/><rect class="cls-14" x="1065.03" y="115.42" width="512.22" height="2.59" transform="translate(326.68 994.27) rotate(-46.48)"/><rect class="cls-14" x="1063.78" y="114.23" width="512.22" height="2.59" transform="translate(327.3 993.16) rotate(-46.48)"/><rect class="cls-14" x="1062.53" y="113.05" width="512.22" height="2.59" transform="translate(327.63 991.72) rotate(-46.48)"/><rect class="cls-14" x="1061.28" y="111.86" width="512.22" height="2.59" transform="translate(328 990.32) rotate(-46.47)"/><rect class="cls-13" x="1060.02" y="110.67" width="512.22" height="2.59" transform="translate(328.57 989.15) rotate(-46.48)"/><rect class="cls-13" x="1058.77" y="109.48" width="512.22" height="2.59" transform="translate(329.09 987.93) rotate(-46.48)"/><rect class="cls-13" x="1057.52" y="108.29" width="512.22" height="2.59" transform="translate(329.37 986.43) rotate(-46.47)"/><rect class="cls-13" x="1056.27" y="107.1" width="512.22" height="2.59" transform="translate(329.85 985.15) rotate(-46.47)"/><rect class="cls-13" x="1055.01" y="105.91" width="512.22" height="2.59" transform="translate(330.51 984.09) rotate(-46.48)"/><rect class="cls-13" x="1053.76" y="104.72" width="512.22" height="2.59" transform="translate(331.09 982.93) rotate(-46.48)"/><rect class="cls-13" x="1052.51" y="103.53" width="512.22" height="2.59" transform="translate(331.31 981.38) rotate(-46.47)"/><rect class="cls-12" x="1051.26" y="102.34" width="512.22" height="2.59" transform="translate(331.79 980.1) rotate(-46.47)"/><rect class="cls-12" x="1050" y="101.15" width="512.22" height="2.59" transform="translate(332.35 978.92) rotate(-46.48)"/><rect class="cls-12" x="1048.75" y="99.96" width="512.22" height="2.59" transform="translate(332.83 977.65) rotate(-46.48)"/><rect class="cls-12" x="1047.5" y="98.77" width="512.22" height="2.59" transform="translate(333.2 976.26) rotate(-46.47)"/><rect class="cls-12" x="1046.25" y="97.58" width="512.22" height="2.59" transform="translate(333.63 974.93) rotate(-46.47)"/><rect class="cls-12" x="1044.99" y="96.39" width="512.22" height="2.59" transform="translate(334.44 974.03) rotate(-46.49)"/><rect class="cls-12" x="1043.74" y="95.2" width="512.22" height="2.59" transform="translate(334.67 972.48) rotate(-46.47)"/><rect class="cls-12" x="1042.49" y="94.01" width="512.22" height="2.59" transform="translate(335.19 971.25) rotate(-46.48)"/><rect class="cls-12" x="1041.24" y="92.82" width="512.22" height="2.59" transform="translate(335.57 969.87) rotate(-46.47)"/><rect class="cls-12" x="1039.98" y="91.63" width="512.22" height="2.59" transform="translate(336.13 968.69) rotate(-46.48)"/><rect class="cls-12" x="1038.73" y="90.44" width="512.22" height="2.59" transform="translate(336.61 967.42) rotate(-46.48)"/><rect class="cls-11" x="1037.48" y="89.25" width="512.22" height="2.59" transform="translate(337.13 966.19) rotate(-46.48)"/><rect class="cls-11" x="1036.22" y="88.06" width="512.22" height="2.59" transform="translate(337.56 964.87) rotate(-46.48)"/><rect class="cls-11" x="1034.97" y="86.87" width="512.22" height="2.59" transform="translate(338.07 963.63) rotate(-46.48)"/><rect class="cls-11" x="1033.72" y="85.68" width="512.22" height="2.59" transform="translate(338.5 962.3) rotate(-46.48)"/><rect class="cls-10" x="1032.47" y="84.49" width="512.22" height="2.59" transform="translate(338.97 961.02) rotate(-46.48)"/><rect class="cls-10" x="1031.21" y="83.3" width="512.22" height="2.59" transform="translate(339.35 959.64) rotate(-46.47)"/><rect class="cls-10" x="1029.96" y="82.11" width="512.22" height="2.59" transform="translate(339.91 958.47) rotate(-46.48)"/><rect class="cls-10" x="1028.71" y="80.92" width="512.22" height="2.59" transform="translate(340.39 957.19) rotate(-46.48)"/><rect class="cls-9" x="1027.46" y="79.73" width="512.22" height="2.59" transform="translate(341.06 956.13) rotate(-46.49)"/><rect class="cls-9" x="1026.2" y="78.54" width="512.22" height="2.59" transform="translate(341.19 954.48) rotate(-46.47)"/><rect class="cls-10" x="1024.95" y="77.36" width="512.22" height="2.59" transform="translate(341.71 953.25) rotate(-46.47)"/><rect class="cls-11" x="1023.7" y="76.17" width="512.22" height="2.59" transform="translate(342.28 952.07) rotate(-46.48)"/><rect class="cls-12" x="1022.45" y="74.98" width="512.22" height="2.59" transform="translate(342.7 950.74) rotate(-46.47)"/><rect class="cls-12" x="1021.19" y="73.79" width="512.22" height="2.59" transform="translate(343.13 949.42) rotate(-46.47)"/><rect class="cls-12" x="1019.94" y="72.6" width="512.22" height="2.59" transform="translate(343.5 948.03) rotate(-46.46)"/><rect class="cls-13" x="1018.69" y="71.41" width="512.22" height="2.59" transform="translate(344.32 947.12) rotate(-46.48)"/><rect class="cls-13" x="1017.44" y="70.22" width="512.22" height="2.59" transform="translate(344.79 945.84) rotate(-46.49)"/><rect class="cls-14" x="1016.18" y="69.03" width="512.22" height="2.59" transform="translate(344.97 944.25) rotate(-46.47)"/><rect class="cls-14" x="1014.93" y="67.84" width="512.22" height="2.59" transform="translate(345.49 943.02) rotate(-46.47)"/><rect class="cls-15" x="1013.68" y="66.65" width="512.22" height="2.59" transform="translate(346.11 941.9) rotate(-46.48)"/><rect class="cls-15" x="1012.43" y="65.46" width="512.22" height="2.59" transform="translate(346.53 940.57) rotate(-46.48)"/><rect class="cls-16" x="1011.17" y="64.27" width="512.22" height="2.59" transform="translate(346.91 939.19) rotate(-46.47)"/><rect class="cls-16" x="1009.92" y="63.08" width="512.22" height="2.59" transform="translate(347.48 938.02) rotate(-46.48)"/><rect class="cls-16" x="1008.67" y="61.89" width="512.22" height="2.59" transform="translate(348.1 936.89) rotate(-46.48)"/><rect class="cls-17" x="1007.42" y="60.7" width="512.22" height="2.59" transform="translate(348.47 935.5) rotate(-46.48)"/><rect class="cls-18" x="1006.16" y="59.51" width="512.22" height="2.59" transform="translate(348.89 934.17) rotate(-46.48)"/><rect class="cls-19" x="1004.91" y="58.32" width="512.22" height="2.59" transform="translate(349.27 932.8) rotate(-46.47)"/><rect class="cls-19" x="1003.66" y="57.13" width="512.22" height="2.59" transform="translate(349.84 931.62) rotate(-46.48)"/><rect class="cls-19" x="1002.41" y="55.94" width="512.22" height="2.59" transform="translate(350.31 930.34) rotate(-46.48)"/><rect class="cls-19" x="1001.15" y="54.75" width="512.22" height="2.59" transform="translate(350.94 929.22) rotate(-46.49)"/><rect class="cls-19" x="999.9" y="53.56" width="512.22" height="2.59" transform="translate(351.27 927.79) rotate(-46.48)"/><rect class="cls-19" x="998.65" y="52.37" width="512.22" height="2.59" transform="translate(351.68 926.45) rotate(-46.47)"/><rect class="cls-19" x="997.4" y="51.18" width="512.22" height="2.59" transform="translate(352.25 925.27) rotate(-46.48)"/><rect class="cls-19" x="996.14" y="49.99" width="512.22" height="2.59" transform="translate(352.63 923.9) rotate(-46.47)"/><rect class="cls-19" x="994.89" y="48.8" width="512.22" height="2.59" transform="translate(353.01 922.52) rotate(-46.47)"/><rect class="cls-19" x="993.64" y="47.61" width="512.22" height="2.59" transform="translate(353.67 921.44) rotate(-46.48)"/><rect class="cls-19" x="992.39" y="46.42" width="512.22" height="2.59" transform="translate(354.24 920.26) rotate(-46.48)"/><rect class="cls-19" x="991.13" y="45.23" width="512.22" height="2.59" transform="translate(354.77 919.04) rotate(-46.49)"/><rect class="cls-19" x="989.88" y="44.04" width="512.22" height="2.59" transform="translate(354.9 917.41) rotate(-46.47)"/><rect class="cls-19" x="988.63" y="42.85" width="512.22" height="2.59" transform="translate(355.51 916.27) rotate(-46.48)"/><rect class="cls-19" x="987.38" y="41.67" width="512.22" height="2.59" transform="translate(356.03 915.05) rotate(-46.48)"/><rect class="cls-19" x="986.12" y="40.48" width="512.22" height="2.59" transform="translate(356.46 913.72) rotate(-46.48)"/><rect class="cls-19" x="984.87" y="39.29" width="512.22" height="2.59" transform="translate(356.79 912.29) rotate(-46.47)"/><rect class="cls-19" x="983.62" y="38.1" width="512.22" height="2.59" transform="translate(357.31 911.07) rotate(-46.47)"/><rect class="cls-19" x="982.37" y="36.91" width="512.22" height="2.59" transform="translate(357.98 909.98) rotate(-46.48)"/><rect class="cls-19" x="981.11" y="35.72" width="512.22" height="2.59" transform="translate(358.4 908.65) rotate(-46.48)"/><rect class="cls-19" x="979.86" y="34.53" width="512.22" height="2.59" transform="translate(358.68 907.18) rotate(-46.47)"/><rect class="cls-18" x="978.61" y="33.34" width="512.22" height="2.59" transform="translate(359.15 905.9) rotate(-46.47)"/><rect class="cls-18" x="977.36" y="32.15" width="512.22" height="2.59" transform="translate(359.77 904.77) rotate(-46.48)"/><rect class="cls-18" x="976.1" y="30.96" width="512.22" height="2.59" transform="translate(360.24 903.49) rotate(-46.48)"/><rect class="cls-18" x="974.85" y="29.77" width="512.22" height="2.59" transform="translate(360.57 902.07) rotate(-46.47)"/><rect class="cls-17" x="973.6" y="28.58" width="512.22" height="2.59" transform="translate(361.24 900.99) rotate(-46.48)"/><rect class="cls-17" x="972.35" y="27.39" width="512.22" height="2.59" transform="translate(361.66 899.65) rotate(-46.48)"/><rect class="cls-17" x="971.09" y="26.2" width="512.22" height="2.59" transform="translate(362.18 898.42) rotate(-46.48)"/><rect class="cls-17" x="969.84" y="25.01" width="512.22" height="2.59" transform="translate(362.6 897.1) rotate(-46.48)"/><rect class="cls-16" x="968.59" y="23.82" width="512.22" height="2.59" transform="translate(362.93 895.67) rotate(-46.47)"/><rect class="cls-16" x="967.34" y="22.63" width="512.22" height="2.59" transform="translate(363.6 894.59) rotate(-46.48)"/><rect class="cls-16" x="966.08" y="21.44" width="512.22" height="2.59" transform="translate(364.07 893.31) rotate(-46.48)"/><rect class="cls-16" x="964.83" y="20.25" width="512.22" height="2.59" transform="translate(364.64 892.13) rotate(-46.48)"/><rect class="cls-16" x="963.58" y="19.06" width="512.22" height="2.59" transform="translate(364.87 890.61) rotate(-46.47)"/><rect class="cls-16" x="962.33" y="17.87" width="512.22" height="2.59" transform="translate(365.44 889.42) rotate(-46.48)"/><rect class="cls-16" x="961.07" y="16.68" width="512.22" height="2.59" transform="translate(365.91 888.14) rotate(-46.48)"/><rect class="cls-16" x="959.82" y="15.49" width="512.22" height="2.59" transform="translate(366.43 886.92) rotate(-46.48)"/><rect class="cls-16" x="958.57" y="14.3" width="512.22" height="2.59" transform="translate(366.71 885.45) rotate(-46.47)"/><rect class="cls-16" x="957.32" y="13.11" width="512.22" height="2.59" transform="translate(367.38 884.36) rotate(-46.48)"/><rect class="cls-16" x="956.06" y="11.92" width="512.22" height="2.59" transform="translate(367.9 883.13) rotate(-46.48)"/><rect class="cls-15" x="954.81" y="10.73" width="512.22" height="2.59" transform="translate(368.27 881.75) rotate(-46.48)"/><rect class="cls-15" x="953.56" y="9.54" width="512.22" height="2.59" transform="translate(368.61 880.34) rotate(-46.47)"/><rect class="cls-15" x="952.31" y="8.35" width="512.22" height="2.59" transform="translate(369.22 879.2) rotate(-46.48)"/><rect class="cls-15" x="951.05" y="7.16" width="512.22" height="2.59" transform="translate(369.64 877.87) rotate(-46.47)"/><rect class="cls-15" x="949.8" y="5.97" width="512.22" height="2.59" transform="translate(370.21 876.69) rotate(-46.48)"/><rect class="cls-15" x="948.55" y="4.79" width="512.22" height="2.59" transform="translate(370.49 875.22) rotate(-46.47)"/><rect class="cls-15" x="947.3" y="3.6" width="512.22" height="2.59" transform="translate(371.12 874.09) rotate(-46.48)"/><rect class="cls-14" x="946.04" y="2.41" width="512.22" height="2.59" transform="translate(371.73 872.95) rotate(-46.48)"/><rect class="cls-14" x="944.79" y="1.22" width="512.22" height="2.59" transform="translate(372.05 871.52) rotate(-46.48)"/><rect class="cls-14" x="943.54" y="0.03" width="512.22" height="2.59" transform="translate(372.43 870.16) rotate(-46.47)"/><rect class="cls-14" x="942.28" y="-1.16" width="512.22" height="2.59" transform="translate(372.86 868.83) rotate(-46.47)"/><rect class="cls-14" x="941.03" y="-2.35" width="512.22" height="2.59" transform="translate(373.47 867.69) rotate(-46.48)"/><rect class="cls-14" x="939.78" y="-3.54" width="512.22" height="2.59" transform="translate(373.99 866.46) rotate(-46.48)"/><rect class="cls-14" x="938.53" y="-4.73" width="512.22" height="2.59" transform="translate(374.43 865.14) rotate(-46.48)"/><rect class="cls-14" x="937.27" y="-5.92" width="512.22" height="2.59" transform="translate(374.9 863.86) rotate(-46.48)"/><rect class="cls-13" x="936.02" y="-7.11" width="512.22" height="2.59" transform="translate(375.41 862.62) rotate(-46.48)"/><rect class="cls-13" x="934.77" y="-8.3" width="512.22" height="2.59" transform="translate(375.79 861.25) rotate(-46.47)"/><rect class="cls-13" x="933.52" y="-9.49" width="512.22" height="2.59" transform="translate(376.22 859.93) rotate(-46.47)"/><rect class="cls-13" x="932.26" y="-10.68" width="512.22" height="2.59" transform="translate(376.64 858.61) rotate(-46.47)"/><rect class="cls-13" x="931.01" y="-11.87" width="512.22" height="2.59" transform="translate(377.25 857.46) rotate(-46.48)"/><rect class="cls-13" x="929.76" y="-13.06" width="512.22" height="2.59" transform="translate(377.88 856.32) rotate(-46.49)"/><rect class="cls-12" x="928.51" y="-14.25" width="512.22" height="2.59" transform="translate(378.35 855.04) rotate(-46.48)"/><rect class="cls-12" x="927.25" y="-15.44" width="512.22" height="2.59" transform="matrix(0.69, -0.73, 0.73, 0.69, 378.58, 853.54)"/><rect class="cls-12" x="926" y="-16.63" width="512.22" height="2.59" transform="translate(379.19 852.39) rotate(-46.48)"/><rect class="cls-12" x="924.75" y="-17.82" width="512.22" height="2.59" transform="translate(379.62 851.07) rotate(-46.48)"/><rect class="cls-12" x="923.5" y="-19.01" width="512.22" height="2.59" transform="translate(380.14 849.83) rotate(-46.48)"/><rect class="cls-11" x="922.24" y="-20.2" width="512.22" height="2.59" transform="translate(380.47 848.42) rotate(-46.47)"/><rect class="cls-11" x="920.99" y="-21.39" width="512.22" height="2.59" transform="translate(381.18 847.37) rotate(-46.48)"/><rect class="cls-10" x="919.74" y="-22.58" width="512.22" height="2.59" transform="translate(381.71 846.14) rotate(-46.49)"/><rect class="cls-9" x="918.49" y="-23.77" width="512.22" height="2.59" transform="translate(381.98 844.67) rotate(-46.48)"/><rect class="cls-9" x="917.23" y="-24.96" width="512.22" height="2.59" transform="translate(382.31 843.27) rotate(-46.47)"/><rect class="cls-9" x="915.98" y="-26.15" width="512.22" height="2.59" transform="translate(382.93 842.12) rotate(-46.48)"/><rect class="cls-9" x="914.73" y="-27.34" width="512.22" height="2.59" transform="translate(383.4 840.84) rotate(-46.48)"/><rect class="cls-9" x="913.48" y="-28.53" width="512.22" height="2.59" transform="translate(383.82 839.52) rotate(-46.47)"/><rect class="cls-8" x="912.22" y="-29.72" width="512.22" height="2.59" transform="translate(384.25 838.2) rotate(-46.47)"/><rect class="cls-8" x="910.97" y="-30.9" width="512.22" height="2.59" transform="translate(384.78 836.97) rotate(-46.47)"/><rect class="cls-7" x="909.72" y="-32.09" width="512.22" height="2.59" transform="translate(385.34 835.77) rotate(-46.48)"/><rect class="cls-7" x="908.47" y="-33.28" width="512.22" height="2.59" transform="translate(385.71 834.4) rotate(-46.47)"/><rect class="cls-20" x="907.21" y="-34.47" width="512.22" height="2.59" transform="translate(386.09 833.04) rotate(-46.47)"/><rect class="cls-20" x="905.96" y="-35.66" width="512.22" height="2.59" transform="translate(386.61 831.81) rotate(-46.47)"/><rect class="cls-20" x="904.71" y="-36.85" width="512.22" height="2.59" transform="translate(387.18 830.61) rotate(-46.48)"/><rect class="cls-21" x="903.46" y="-38.04" width="512.22" height="2.59" transform="translate(387.65 829.33) rotate(-46.48)"/><rect class="cls-21" x="902.2" y="-39.23" width="512.22" height="2.59" transform="translate(388.18 828.1) rotate(-46.48)"/><rect class="cls-22" x="900.95" y="-40.42" width="512.22" height="2.59" transform="translate(388.46 826.65) rotate(-46.47)"/><rect class="cls-23" x="899.7" y="-41.61" width="512.22" height="2.59" transform="translate(389.12 825.54) rotate(-46.48)"/><rect class="cls-23" x="898.45" y="-42.8" width="512.22" height="2.59" transform="translate(389.59 824.26) rotate(-46.48)"/><rect class="cls-24" x="897.19" y="-43.99" width="512.22" height="2.59" transform="translate(389.87 822.81) rotate(-46.47)"/><rect class="cls-24" x="895.94" y="-45.18" width="512.22" height="2.59" transform="translate(390.4 821.58) rotate(-46.47)"/><rect class="cls-25" x="894.69" y="-46.37" width="512.22" height="2.59" transform="translate(390.91 820.34) rotate(-46.47)"/><rect class="cls-26" x="893.44" y="-47.56" width="512.22" height="2.59" transform="translate(391.58 819.23) rotate(-46.48)"/><rect class="cls-26" x="892.18" y="-48.75" width="512.22" height="2.59" transform="translate(391.96 817.87) rotate(-46.48)"/><rect class="cls-26" x="890.93" y="-49.94" width="512.22" height="2.59" transform="translate(392.24 816.42) rotate(-46.47)"/><rect class="cls-26" x="889.68" y="-51.13" width="512.22" height="2.59" transform="translate(392.85 815.27) rotate(-46.48)"/><rect class="cls-27" x="888.43" y="-52.32" width="512.22" height="2.59" transform="translate(393.37 814.03) rotate(-46.48)"/><rect class="cls-28" x="887.17" y="-53.51" width="512.22" height="2.59" transform="translate(393.75 812.67) rotate(-46.47)"/><rect class="cls-28" x="885.92" y="-54.7" width="512.22" height="2.59" transform="translate(394.18 811.35) rotate(-46.47)"/><rect class="cls-28" x="884.67" y="-55.89" width="512.22" height="2.59" transform="translate(394.84 810.24) rotate(-46.48)"/><rect class="cls-28" x="883.42" y="-57.08" width="512.22" height="2.59" transform="translate(395.36 809) rotate(-46.48)"/><rect class="cls-29" x="882.16" y="-58.27" width="512.22" height="2.59" transform="translate(395.69 807.6) rotate(-46.48)"/><rect class="cls-29" x="880.91" y="-59.46" width="512.22" height="2.59" transform="translate(396.02 806.2) rotate(-46.47)"/><rect class="cls-29" x="879.66" y="-60.65" width="512.22" height="2.59" transform="translate(396.68 805.08) rotate(-46.48)"/><rect class="cls-29" x="878.41" y="-61.84" width="512.22" height="2.59" transform="translate(397.15 803.8) rotate(-46.48)"/><rect class="cls-29" x="878.59" y="-61.05" width="512.22" height="1.37" transform="translate(396.87 803.8) rotate(-46.46)"/></g><polygon class="cls-30" points="1473.18 121.6 1442.36 121.6 1497.23 33.38 1528.06 33.38 1473.18 121.6"/><polygon class="cls-31" points="1063.08 121.6 1032.25 121.6 1086.82 33.38 1117.64 33.38 1063.08 121.6"/><path class="cls-32" d="M1206.39,65.34c0,1.53-2,2.78-4.55,2.78s-4.55-1.25-4.55-2.78,2-2.79,4.55-2.79S1206.39,63.8,1206.39,65.34Z"/><path class="cls-32" d="M1170.75,75.21a41.83,41.83,0,0,0,8.65-11.8s27.29-19.86,23.09-25.52c0,0-2-2.78-10.09,3.16S1176.1,55.76,1168,67.29c0,0-12.91,11.82-29.55,11.82s-14.21-15.29-10.77-20.52,14.1-19.85,31.08-19.85,15.69,10.53,5.51,21.83-22.13,11.05-24.29,6a8.78,8.78,0,0,0,3.38-.58c1.51-.66,3.67-2.17,3.18-4.15s-3.31-2.59-6-2-4.9,2.35-4,6.22,5.69,6,9.52,6,13-2.44,20.88-10.25S1174.19,47,1174.19,47c0-6.77-6.89-10.46-15.11-10.46s-27.51,5.15-36.66,19,.33,25.52,17.6,25.52c13.79,0,22.15-6.91,22.15-6.91s-1.44,6.09-13.51,11a235.46,235.46,0,0,0-28.53-2c-9.9,0-12.84,2.75-12.84,4.25,0,2,4.88,4.49,12.84,4.25a114,114,0,0,0,21.24-2.34s22.53,3.49,28.91,3.49c6.82,0,14.15-1,14.21-3.1,0-1.48-3.64-.14-8.65-.49,0,0-3.4.49-21.66-2.85l.48-1.31s7.06-1.23,16.09-9.88Zm19.27-29h0c2.23-2.32,8.77-7.35,10.2-5.88,1.18,1.2-3.76,6.19-6.53,8.72s-10,6.6-10.48,6.09,4.58-6.61,6.81-8.93Zm-67.93,43.45h0c-3.19.36-11.44,0-11.6-2-.13-1.68,6.85-2.36,10.59-2.53s12,1.35,12,2S1125.29,89.27,1122.09,89.62Z"/><path class="cls-32" d="M1282.39,77.53c-1.44,0-4.76,3.1-9.25,6.9-3.48,2.94-8.12,5-11.39,5-6.68,0,.22-8.83.22-8.83,18.09.94,26.08-11.69,13.82-11.69A24.52,24.52,0,0,0,1255.6,79c-3.44,4.6-11.7,10.86-14.39,10.86s1.4-4.63,1.4-4.63l25-33.32a8.48,8.48,0,0,1-8.23,0h0l-20.4,27.15c-3.45,4.58-11.67,10.81-14.35,10.81s1.4-4.63,1.4-4.63l10.45-14h4.18l1.82-2.42h-4.18l6.35-8.48a8.41,8.41,0,0,1-8.28,0h0l-6.38,8.5h-8.32l6.37-8.5h0a7.05,7.05,0,0,1-4.15,1.1,7.12,7.12,0,0,1-4.14-1.08h0l-6.36,8.48h-4.16l-1.81,2.42h4.15c-2.14,2.87-4.3,5.75-5.9,7.88-3.5,4.58-11.61,10.71-14.28,10.71s1.41-4.63,1.41-4.63l12.25-16.36a8.41,8.41,0,0,1-8.28,0h0l-10.14,13.54c-1.49,2-4.71,9.28,3.66,9.28,0,0,4.4.68,11.08-5.11l.16-.12c-.48,2.55.33,5.23,5.4,5.23,0,0,4.4.68,11.08-5.11l.16-.12c-.48,2.55.33,5.23,5.4,5.23,0,0,4.4.68,11.08-5.11l.16-.12c-.48,2.55.33,5.23,5.4,5.23,0,0,4.4.68,11.08-5.11l2.1-1.68c-.32,2.83.7,6.66,8.41,6.66,12,0,19.68-10.49,20.83-12.32s-.1-1.71-.1-1.71Zm-12.85-3.69h0c1.67-1.11,6.35-3.3,7-2.21.56.89-3.13,3.28-5.16,4.44s-7,2.68-7.22,2.31,3.69-3.42,5.36-4.54Zm-47.32,5.31h0c-3.5,4.58-11.62,10.73-14.29,10.73s1.4-4.63,1.4-4.63l10.46-14h8.32Z"/><path class="cls-32" d="M1377.49,34.22c-1.14-3.17-12,3.49-15.1,5.32,0,0-33.65,5-36,17.68-1.73,9.31,7.89,11.65,7.89,11.65s-12.78,21.55-31,21.55c0,0-12,0-12.59-3.61a8.52,8.52,0,0,0,4.56-1.19c1.81-1.29,2-2.15,2-3.22s-1.67-3.14-5.72-2.36S1287,83.49,1287,85s.88,7.84,14.67,7.84,28.3-5,40.89-24a20.7,20.7,0,0,0,11-3.55c5.62-3.71,7.91-6.59,7.91-9.4s-3.22-2.23-3.22-.12-4.11,8.77-13.45,10.12c0,0,.75-7.5,19.41-24.6,0,0,14.4-3.94,13.27-7.1Zm-41,31.7h0s-5.42.48-5.42-5.55c0,0-.06-11,25.45-16.85C1356.48,43.52,1342.28,55.54,1336.45,65.92Z"/><path class="cls-32" d="M1451.69,78.35c-1.42-.94-2.48.67-2.48.67-3.44,4.6-11.7,10.86-14.39,10.86s1.41-4.63,1.41-4.63l12.26-16.38h0a8.4,8.4,0,0,1-8.31,0l-7.63,10.18-.06,0c-3.44,4.6-11.7,10.86-14.39,10.86s1.41-4.63,1.41-4.63L1431.65,69a7.43,7.43,0,0,1-4,1,7,7,0,0,1-4.17-1.11h0l-7.85,10.48c-3.57,4.56-11.5,10.53-14.14,10.53s1.41-4.63,1.41-4.63L1427.75,52a7.37,7.37,0,0,1-4,1,7,7,0,0,1-4.17-1.11h0L1399,79.29c-3.56,4.56-11.52,10.57-14.16,10.57s1.4-4.63,1.4-4.63l12.23-16.33a7.13,7.13,0,0,1-4.09,1,7,7,0,0,1-4.15-1.1h0l-.76,1c-.51-1.22-5-1-5-1-11,0-18.84,9.46-21.27,12.19s-4,4.58-4.09,4.66c-3,2.38-6.08,4.18-7.52,4.18-2.7,0,1.41-4.63,1.41-4.63l10.41-14h3.73l1.82-2.42h-3.74l6.33-8.47h0a8.47,8.47,0,0,1-8.24,0h0l-6.34,8.47h-3.71l-1.82,2.42h3.72l-8.32,11.12c-1.5,2-4.71,9.28,3.66,9.28,0,0,4.39.68,11.08-5.11l1.72-1.38c0,2.55,1,6.51,7,6.51a14.16,14.16,0,0,0,8.1-2.91c.43,1.61,1.89,2.87,5.36,2.87,0,0,4.4.68,11.09-5.11l.13-.11c-.48,2.56.32,5.24,5.4,5.24,0,0,4.4.68,11.08-5.11l.15-.12c-.47,2.55.33,5.23,5.41,5.23,0,0,4.17.79,10.85-5l-3.29,4.83a107.12,107.12,0,0,0-16.89,7c-7.81,4.2-11.52,7.55-11.12,12.21s9.53,3.68,15.3.79,16.49-11.62,20.73-19.83l0,0a10.89,10.89,0,0,0,1.19.07s4.4.68,11.09-5.11l6.92-5.55a1.63,1.63,0,0,0,0-2.68Zm-82.54,10.34h0c-1.28-.82-1.09-4,5.86-10.73s11.72-6.72,12.12-6.06c1.42,2.36-13.94,19.4-18,16.79Zm31.15,21.39h0c0-7.14,22.45-15.07,22.45-15.07C1413.58,111,1400.3,114.66,1400.3,110.08Z"/><path class="cls-32" d="M1185,121.14l-2,0h-.5l-2,0v0c.7-.1,1.11-.63,1.23-1.6v-.09a2.68,2.68,0,0,0,0-.34l0-10.43h0v0a2.63,2.63,0,0,0-.33-1.43,1.29,1.29,0,0,0-.92-.6v0l5.7,0a5.79,5.79,0,0,1,3,.77,2.88,2.88,0,0,1,1.34,2.58q0,2.27-2.83,3.88a.91.91,0,0,1-.24.16l-.3.13-.3.1-.21.07a2.66,2.66,0,0,1-.41.09c-.18,0-.51.06-1,.09a6.7,6.7,0,0,0-1.55.09l.07,4.59a2.62,2.62,0,0,0,.33,1.42,1.3,1.3,0,0,0,.92.61v0Zm3.26-11.13v0a3.62,3.62,0,0,0-.2-1.24,1.36,1.36,0,0,0-.53-.72v0a3.4,3.4,0,0,0-2.35-.67c-.87,0-1.33.13-1.39.39a.79.79,0,0,0,0,.23l-.07,5.57h.91a5.79,5.79,0,0,0,1.37-.16h0l0,0a2.62,2.62,0,0,0,1.34-.79,3.54,3.54,0,0,0,.89-2.45Z"/><path class="cls-32" d="M1199.3,106.36a1.8,1.8,0,0,0-1,.37,3.35,3.35,0,0,0-.73.84V119a1.65,1.65,0,0,0,.34,1.07,2.42,2.42,0,0,0,.57.58,2.12,2.12,0,0,0,.8.33s0,.06,0,.07a1.2,1.2,0,0,1-.57,0,42,42,0,0,0-4.54,0,.64.64,0,0,1-.45-.09,2.17,2.17,0,0,0,1.31-.56,1.67,1.67,0,0,0,.58-1.15V108.27a1.71,1.71,0,0,0-.18-.8,2.58,2.58,0,0,0-.49-.78.92.92,0,0,0-.67-.33c.12,0,1,0,2.57-.06A16.27,16.27,0,0,1,1199.3,106.36Z"/><path class="cls-32" d="M1215.54,121.09v0h-4c-.65,0-1.33,0-2,0-1.46,0-2.67,0-3.62,0H1203a.12.12,0,0,1-.07-.07c-.09-.18,0-.41.16-.69q5-6.94,8.41-12.41a.56.56,0,0,0,.14-.27c0-.12-.35-.18-1-.18h-2.72a5.38,5.38,0,0,0-3,.64,8,8,0,0,0-1.74,2h-.09c0-1,0-2.22,0-3.63h3.71l2.56,0,2.74,0h2.64l.07,0q.09.21-.18.6-4.65,6.36-8.26,12.09a1,1,0,0,0-.18.43c0,.18.23.29.64.32,1,.08,2.26.12,3.83.12a6.52,6.52,0,0,0,3.19-.53,3.2,3.2,0,0,0,1.45-1.41,9,9,0,0,1,.45-.89Z"/><path class="cls-32" d="M1231.12,121.09v0h-4c-.66,0-1.34,0-2,0-1.47,0-2.67,0-3.63,0h-2.85a.16.16,0,0,1-.07-.07c-.09-.18,0-.41.16-.69q5-6.94,8.42-12.41a.61.61,0,0,0,.13-.27c0-.12-.35-.18-1-.18h-2.72a5.38,5.38,0,0,0-3,.64,8.21,8.21,0,0,0-1.74,2h-.09c0-1,0-2.22,0-3.63h3.71l2.56,0,2.74,0h2.64l.07,0q.09.21-.18.6-4.65,6.36-8.26,12.09a1,1,0,0,0-.18.43c0,.18.23.29.64.32,1,.08,2.26.12,3.83.12a6.52,6.52,0,0,0,3.19-.53,3.2,3.2,0,0,0,1.45-1.41,9,9,0,0,1,.45-.89Z"/><path class="cls-32" d="M1233.65,121.12h-2.76l0,0a1.22,1.22,0,0,0,.82-.51c.2-.28.41-.57.64-.85a22.06,22.06,0,0,0,1.56-3.07q1.23-2.67,1.86-4.14,1.66-4.09,2.88-7.3,3,7.27,6,13.87a3.78,3.78,0,0,0,.87,1.41,2.1,2.1,0,0,0,1.14.59v0l-3.54,0c-.65-1.72-1.17-3-1.55-4h-6.5l-1.44,4Zm7.48-5.05-2.8-6.82-2.9,7h5.8Z"/><path class="cls-32" d="M1254.91,115.07a3.63,3.63,0,0,1,1.08,2.33,3.18,3.18,0,0,1-.06.94,2.78,2.78,0,0,1-.42,1,6.28,6.28,0,0,1-.76,1,2.08,2.08,0,0,1-.75.57,6.47,6.47,0,0,1-3.6.57c-1.8-.15-3-.51-3.52-1.07v-2.92l.1.11a6.64,6.64,0,0,0,1.75,2.15,4.18,4.18,0,0,0,2.17.77c1.54.14,2.53-.22,3-1.07a1.16,1.16,0,0,1,.11-.27,2.73,2.73,0,0,0,.16-.85,2.37,2.37,0,0,0-.59-1.71,15.27,15.27,0,0,0-2.63-2,21.51,21.51,0,0,1-3.33-2.5,3.45,3.45,0,0,1-.84-2.56,3.21,3.21,0,0,1,1.45-2.52,4.93,4.93,0,0,1,3.39-.81,9.09,9.09,0,0,1,2.55.59c.7.29,1,.55,1,.78s0,1,0,2.58c.09.15-.06-.07-.45-.67a6.54,6.54,0,0,0-1.42-1.55,3.73,3.73,0,0,0-2.1-.7,2.9,2.9,0,0,0-1.88.38,1.84,1.84,0,0,0-.79,1.49,2.36,2.36,0,0,0,.59,1.68,10.56,10.56,0,0,0,2.26,1.72A16.83,16.83,0,0,1,1254.91,115.07Z"/><path class="cls-32" d="M1297,121.14l-2,0h-.5l-2,0v0c.7-.1,1.11-.63,1.23-1.6v-.09a1.57,1.57,0,0,0,0-.34l0-10.43h0v0a2.63,2.63,0,0,0-.33-1.43,1.29,1.29,0,0,0-.92-.6v0l5.7,0a5.79,5.79,0,0,1,3,.77,2.88,2.88,0,0,1,1.34,2.58q0,2.27-2.83,3.88a.91.91,0,0,1-.24.16,2.71,2.71,0,0,1-.3.13l-.3.1-.21.07a2.66,2.66,0,0,1-.41.09c-.18,0-.51.06-1,.09a6.7,6.7,0,0,0-1.55.09l.07,4.59a2.62,2.62,0,0,0,.33,1.42,1.3,1.3,0,0,0,.92.61v0Zm3.26-11.13v0a3.62,3.62,0,0,0-.2-1.24,1.36,1.36,0,0,0-.53-.72v0a3.4,3.4,0,0,0-2.35-.67c-.86,0-1.33.13-1.39.39a.79.79,0,0,0,0,.23l-.07,5.57h.91a5.79,5.79,0,0,0,1.37-.16h0l0,0a2.62,2.62,0,0,0,1.34-.79,3.54,3.54,0,0,0,.89-2.45Z"/><path class="cls-32" d="M1305.62,121.12h-2.76l0,0a1.22,1.22,0,0,0,.82-.51c.2-.28.41-.57.64-.85a22.06,22.06,0,0,0,1.56-3.07q1.23-2.67,1.86-4.14,1.66-4.09,2.88-7.3,3,7.27,6,13.87a3.78,3.78,0,0,0,.87,1.41,2.1,2.1,0,0,0,1.14.59v0l-3.54,0c-.65-1.72-1.17-3-1.55-4h-6.5l-1.44,4Zm7.48-5.05-2.8-6.82-2.9,7h5.8Z"/><path class="cls-32" d="M1326.88,115.07a3.63,3.63,0,0,1,1.08,2.33,3.18,3.18,0,0,1-.06.94,2.78,2.78,0,0,1-.42,1,6.28,6.28,0,0,1-.76,1,2.08,2.08,0,0,1-.75.57,6.47,6.47,0,0,1-3.6.57c-1.8-.15-3-.51-3.52-1.07v-2.92l.1.11a6.64,6.64,0,0,0,1.75,2.15,4.18,4.18,0,0,0,2.17.77c1.54.14,2.53-.22,3-1.07a1.16,1.16,0,0,1,.11-.27,2.73,2.73,0,0,0,.16-.85,2.37,2.37,0,0,0-.59-1.71,15.27,15.27,0,0,0-2.63-2,21.51,21.51,0,0,1-3.33-2.5,3.45,3.45,0,0,1-.84-2.56,3.21,3.21,0,0,1,1.45-2.52,4.93,4.93,0,0,1,3.39-.81,9.09,9.09,0,0,1,2.55.59c.7.29,1,.55,1,.78s0,1,.05,2.58c.09.15-.06-.07-.45-.67a6.34,6.34,0,0,0-1.42-1.55,3.73,3.73,0,0,0-2.1-.7,2.9,2.9,0,0,0-1.88.38,1.84,1.84,0,0,0-.79,1.49,2.36,2.36,0,0,0,.59,1.68,10.56,10.56,0,0,0,2.26,1.72A16.83,16.83,0,0,1,1326.88,115.07Z"/><path class="cls-32" d="M1345.91,106.49c0,1.42,0,2.63-.05,3.63h-.09a8,8,0,0,0-1.73-2,5.4,5.4,0,0,0-3.06-.64h-.86c-.28,0-.43.09-.46.18a.36.36,0,0,0-.05.19l0,11.22a1.65,1.65,0,0,0,.34,1.07,2.25,2.25,0,0,0,.57.58,2.12,2.12,0,0,0,.8.33s0,.06,0,.07a1.2,1.2,0,0,1-.57,0,42,42,0,0,0-4.54,0,.64.64,0,0,1-.45-.09,2.17,2.17,0,0,0,1.31-.56,1.67,1.67,0,0,0,.58-1.15l0-11.52a.38.38,0,0,0-.23-.35h-1.21a5.53,5.53,0,0,0-3.06.64,8.2,8.2,0,0,0-1.73,2h-.09c0-1,0-2.21,0-3.62l6.28,0Z"/><path class="cls-32" d="M1348.21,121.12h-2.76l0,0a1.22,1.22,0,0,0,.82-.51c.2-.28.41-.57.64-.85a22.06,22.06,0,0,0,1.56-3.07q1.23-2.67,1.86-4.14,1.67-4.09,2.88-7.3,3,7.27,6,13.87a3.78,3.78,0,0,0,.87,1.41,2.1,2.1,0,0,0,1.14.59v0l-3.54,0c-.65-1.72-1.17-3-1.55-4h-6.5l-1.44,4Zm7.49-5.05c0-.1-1-2.38-2.81-6.82l-2.9,7h5.8Z"/><path class="cls-32" d="M1369.47,115.07a3.63,3.63,0,0,1,1.08,2.33,3.18,3.18,0,0,1-.06.94,2.78,2.78,0,0,1-.42,1,6.28,6.28,0,0,1-.76,1,2,2,0,0,1-.75.57,6.47,6.47,0,0,1-3.6.57c-1.8-.15-3-.51-3.52-1.07v-2.92l.1.11a6.64,6.64,0,0,0,1.75,2.15,4.18,4.18,0,0,0,2.17.77c1.54.14,2.53-.22,3-1.07a1.16,1.16,0,0,1,.11-.27,2.73,2.73,0,0,0,.16-.85,2.37,2.37,0,0,0-.59-1.71,15.49,15.49,0,0,0-2.62-2,21.23,21.23,0,0,1-3.34-2.5,3.45,3.45,0,0,1-.84-2.56,3.21,3.21,0,0,1,1.45-2.52,4.93,4.93,0,0,1,3.39-.81,9.09,9.09,0,0,1,2.55.59c.7.29,1,.55,1,.78s0,1,0,2.58c.09.15-.06-.07-.45-.67a6.34,6.34,0,0,0-1.42-1.55,3.73,3.73,0,0,0-2.1-.7,2.9,2.9,0,0,0-1.88.38,1.84,1.84,0,0,0-.79,1.49,2.36,2.36,0,0,0,.59,1.68,10.56,10.56,0,0,0,2.26,1.72A16.83,16.83,0,0,1,1369.47,115.07Z"/><path class="cls-32" d="M1277.2,111.38h4.68v.43a2.76,2.76,0,0,0-1.43.42,8.41,8.41,0,0,0-1.45,2.12,23.34,23.34,0,0,1-2.21,3.29,8,8,0,0,0,1.78,1.62,3,3,0,0,0,1.57.47,2.11,2.11,0,0,0,1.3-.42,2.25,2.25,0,0,0,.76-1.24l.41.31a4.44,4.44,0,0,1-1.33,2.33,3.23,3.23,0,0,1-2.12.75,4,4,0,0,1-1.86-.5,8.4,8.4,0,0,1-2-1.69,9.75,9.75,0,0,1-2.49,1.71,5.91,5.91,0,0,1-2.37.48,4.19,4.19,0,0,1-2.92-1,3.08,3.08,0,0,1-1.08-2.35,4.56,4.56,0,0,1,1-2.69,10.71,10.71,0,0,1,3.66-2.78,12.74,12.74,0,0,1-.72-1.9,5.61,5.61,0,0,1-.19-1.42,3.34,3.34,0,0,1,1.4-2.91,4.19,4.19,0,0,1,2.49-.78,3,3,0,0,1,2.16.78,2.55,2.55,0,0,1,.84,1.93,3,3,0,0,1-.81,2.07,10.26,10.26,0,0,1-2.87,1.95,47.77,47.77,0,0,0,3,4.62c1.31-1.56,2-2.87,2-3.93a1.4,1.4,0,0,0-.33-.91,1.05,1.05,0,0,0-.71-.35v-.43Zm-4.25.28a5.69,5.69,0,0,0,2.06-1.49,2.82,2.82,0,0,0,.69-1.85,1.86,1.86,0,0,0-.5-1.33,1.63,1.63,0,0,0-1.22-.52,1.67,1.67,0,0,0-1.46.67,2.25,2.25,0,0,0-.5,1.32,4.44,4.44,0,0,0,.19,1.22,18.61,18.61,0,0,0,.74,2Zm1.72,7c-1-1.33-1.65-2.31-2-2.93s-.79-1.38-1.24-2.29a6.4,6.4,0,0,0-2,1.7,3.36,3.36,0,0,0-.68,2,3.17,3.17,0,0,0,.77,2.1,2.6,2.6,0,0,0,2.08.9,3.33,3.33,0,0,0,1.35-.28A8.29,8.29,0,0,0,1274.67,118.62Z"/></g></svg>